<svg xmlns="http://www.w3.org/2000/svg" width="150" height="50">
  <linearGradient id="a" x2="150" y1="25" y2="25" gradientUnits="userSpaceOnUse">
    <stop offset=".2759"/>
    <stop offset="1" stop-color="#1c1c1c"/>
  </linearGradient>
  <path fill="url(#a)" d="M0 0h150v50H0z"/>
  <path stroke="#CCC" stroke-miterlimit="10" d="M51.5 35.5h96v12h-96z"/>
  <path fill="#1BA3CC" stroke="#CCC" stroke-miterlimit="10" d="M51.5 35.5h35v12h-35z"/>
  <path fill="none" d="M47.8 38h37.7v12H47.8z"/>
  <text fill="#FFF" font-family="'ArialNarrow-Bold'" font-size="9.0858" transform="matrix(1.1688 0 0 1 54.0684 44.542)">
    ROBOT
  </text>
  <path fill="none" d="M87.5 38h60.2v12H87.5z"/>
  <text fill="#FFF" font-family="'ArialNarrow'" font-size="9.0858" transform="matrix(1.1688 0 0 1 87.457 44.542)">
    COMPANIONS
  </text>
  <radialGradient id="b" cx="165.375" cy="34.625" r="20.125" gradientTransform="rotate(90 99.375 -40.3755)" gradientUnits="userSpaceOnUse">
    <stop offset=".2759"/>
    <stop offset="1" stop-color="#1c1c1c"/>
  </radialGradient>
  <linearGradient id="c" x1="144.25" x2="186.5" y1="34.625" y2="34.625" gradientTransform="rotate(90 99.375 -40.3755)" gradientUnits="userSpaceOnUse">
    <stop offset="0" stop-color="#fff"/>
    <stop offset="1"/>
  </linearGradient>
  <circle cx="24.4" cy="25.6" r="20.1" fill="url(#b)" stroke="url(#c)" stroke-miterlimit="10" stroke-width="2"/>
  <linearGradient id="d" x1="33.251" x2="73.1665" y1="-115.5425" y2="-115.5425" gradientTransform="rotate(-90 109.3745 -30.374)" gradientUnits="userSpaceOnUse">
    <stop offset="0" stop-color="#fff"/>
    <stop offset="1"/>
  </linearGradient>
  <circle cx="24.2" cy="25.8" r="19" stroke="url(#d)" stroke-miterlimit="10" stroke-width="1.8895"/>
  <radialGradient id="e" cx="24.2061" cy="25.792" r="17.5439" gradientUnits="userSpaceOnUse">
    <stop offset=".3894" stop-color="#800"/>
    <stop offset=".5611" stop-color="#600"/>
    <stop offset=".939" stop-color="#0f0000"/>
    <stop offset="1"/>
  </radialGradient>
  <circle cx="24.2" cy="25.8" r="17.5" fill="url(#e)"/>
  <circle cx="24.2" cy="25.8" r="1.5" fill="#C69C6D"/>
  <path fill="gray" d="M37.3 27c-1.4-1.4-.5-4.1-2.1-6.6-.1-.1-.1-.2-.2-.3-.1-.1-.1-.2-.2-.3-.1-.7.2-.8.6-.8.1 0 .2 0 .3.1 3.2.5 3.8 5.5 1.6 7.9zm-26.4-3.7c1.6-1.1 1.3-3.9 3.3-6 .1-.1.1-.2.2-.3.1-.1.1-.2.2-.2.3-.7.1-.9-.3-.9H14c-3-.2-4.6 4.6-3.1 7.4z" opacity=".2"/>
  <g opacity=".5">
    <linearGradient id="f" x1="24.4868" x2="24.4868" y1="14.6812" y2="10.7217" gradientUnits="userSpaceOnUse">
      <stop offset=".3894" stop-color="gray"/>
      <stop offset=".8116" stop-color="#a2a2a2"/>
      <stop offset="1" stop-color="#b3b3b3"/>
    </linearGradient>
    <path fill="url(#f)" d="M31.7 14.2c0 1-1.8.2-3.5-.3-.1 0-.1 0-.2-.1-1.8-.6-4.7-.7-6.7-.1-.1 0-.2 0-.3.1-2.2.8-4.3 1.3-3.7-.3v-.1c.2-.5 1.3-1.4 2.4-1.8.1 0 .2-.1.3-.1 1.7-1.5 9.2-.5 9.1.2.7.3 1.3.8 1.8 1.4.1.1.1.2.2.3.4.3.5.6.6.8z"/>
  </g>
</svg>