<?xml version="1.0" encoding="utf-8"?>
<!-- Generator: Adobe Illustrator 16.0.0, SVG Export Plug-In . SVG Version: 6.00 Build 0)  -->
<!DOCTYPE svg PUBLIC "-//W3C//DTD SVG 1.1//EN" "http://www.w3.org/Graphics/SVG/1.1/DTD/svg11.dtd">
<svg version="1.1"
	 id="svg4695" xmlns:dc="http://purl.org/dc/elements/1.1/" xmlns:cc="http://creativecommons.org/ns#" xmlns:rdf="http://www.w3.org/1999/02/22-rdf-syntax-ns#" xmlns:svg="http://www.w3.org/2000/svg" xmlns:sodipodi="http://sodipodi.sourceforge.net/DTD/sodipodi-0.dtd" xmlns:inkscape="http://www.inkscape.org/namespaces/inkscape" sodipodi:docname="Mattel.svg" inkscape:version="0.91 r13725"
	 xmlns="http://www.w3.org/2000/svg" xmlns:xlink="http://www.w3.org/1999/xlink" x="0px" y="0px" width="892.557px"
	 height="1000px" viewBox="51.496 0 892.557 1000" enable-background="new 51.496 0 892.557 1000" xml:space="preserve">
<sodipodi:namedview  inkscape:cy="420.66384" inkscape:cx="513.77248" inkscape:zoom="0.3535534" showgrid="false" guidetolerance="10" gridtolerance="10" objecttolerance="10" bordercolor="#666666" pagecolor="#ffffff" borderopacity="1" id="namedview4756" inkscape:current-layer="svg4695" inkscape:window-maximized="1" inkscape:window-y="-8" inkscape:window-x="-8" inkscape:window-height="705" inkscape:window-width="1366" inkscape:pageshadow="2" inkscape:pageopacity="0">
	</sodipodi:namedview>
<g>
	<path id="polygon4712" sodipodi:nodetypes="ccccccc" inkscape:connector-curvature="0" fill="#FFFFFF" d="M798.034,251.71
		l-34.857,8.55l44.169,170.538l107.509-26.487l-34.386-22.885l-48.188,13.513L798.034,251.71z"/>
	<polygon id="polygon4714" fill="#FFFFFF" points="306.981,563.33 158.133,603.063 137.825,601.417 95.424,439.295 264.26,393.559 	
		"/>
	<path id="polygon4720" inkscape:connector-curvature="0" fill="#FF1E32" d="M508.153,0l-23.277,38.786L455.61,2.959l-18.543,40.939
		l-32.664-33.589l-14.285,43.525l-36.884-29.2l-7.456,46.563l-40.326-25.251l-3.174,45.281l-44.516-19.051l3.217,46.949
		l-44.958-13.334l10.146,43.819l-47.925-4.099l13.894,42.952l-48.745-1.46l20.805,43.351l-46.588,4.631l25.473,39.389
		l-46.588,10.372l31.418,35.828l-46.049,14.313l35.211,31.847l-41.787,20.419l37.783,29.187l-39.146,24.87l25.262,13.363
		l-2.65-10.842l43.939-11.23l69.469,110.62l6.535-131.726l44.811-11.269l42.584,164.054l-28.959,7.807l-31.74-124.297
		l-10.047,135.514l-27.63,7.447l-68.597-110.266l29.75,120.54l-8.102,2.27l-23.268,43.095l47.474,2.41l-15.571,43.479l46.548-5.442
		l-12.612,44.003l47.382-11.79l-5.715,46.609l44.327-17.801l0.266,46.989l38.342-24.008l6.271,47.463l37.815-30.109l13.926,46.084
		l32.709-34.102l18.644,43.819l28.411-35.254l25.027,39.808h0.019l23.27-38.375l30.996,35.844l16.824-41.33l34.381,32.682
		l14.729-43.594l36.885,27.47l8.777-43.899l39.406,24.704l1.004-48.167l42.838,17.736l-3.225-44.82l46.242,13.331l-10.138-46.399
		l44.958,9.741l-14.327-44.257l46.553,1.448l-19.886-42.457l49.15,0.175l-25.879-43.767l44.382-9.974l-27.967-37.166l43.925-13.842
		l-33.98-35.331l40.993-19.129l-36.492-29.598l36.628-21.342l-8.77-5.995l-100.1,26.852l-43.231-164.43l28.597-7.643l36.228,138.603
		l47.783-13.497l34.459-29.13l-42-20.012l31.023-33.524l-45.344-13.361l28.437-36.575l-45.806-3.721l22.866-40.084l-48.298-1.874
		l15.995-42.306l-45.261,4.229l12.169-44.848l-46.537,12.13l4.039-48.771l-43.09,18.716l-1.555-47.892l-39.186,22.212l-7.97-46.082
		l-37.031,27.888l-13.05-45.559l-34.02,32.665L560.341,4.07l-27.588,35.331L508.153,0z M103.978,472.59l-26.346,23.028
		l35.611,12.572L103.978,472.59z M116.668,521.391L91.11,546.077l34.959,11.285L116.668,521.391L116.668,521.391z M129.857,571.422
		l-20.056,28.045l27.945,2.264L129.857,571.422L129.857,571.422z"/>
	<path id="polygon4724" inkscape:connector-curvature="0" fill="#FFFFFF" d="M361.046,372.177l-36.332,10.336l-12.879,179.292
		l28.414-7.535l2.388-34.69l67.925-18.405l18.538,29.326l31.073-8.505L361.046,372.177L361.046,372.177z M349.704,403.827
		l45.318,72.321l-50.829,13.884L349.704,403.827L349.704,403.827z"/>
	<polygon id="polygon4728" fill="#FFFFFF" points="573.54,343.678 609.824,481.921 581.221,489.526 544.103,351.321 
		471.858,370.622 507.427,509.456 479.104,517.032 443.698,378.277 391.593,392.619 384.958,366.344 616.124,304.28 623.54,329.321 
			"/>
	<polygon id="polygon4730" fill="#FFFFFF" points="674.653,361.106 755.752,338.196 762.338,363.209 681.661,385.664 
		693.443,432.19 787.844,407.032 794.198,432.752 672.223,465.286 629.814,300.674 751.13,267.848 758.141,293.771 663.699,318.961 
			"/>
	<g>
		<defs>
			<polygon id="SVGID_1_" points="103.626,473.332 78.94,494.917 112.3,506.668 113.295,507.751 77.627,495.175 104.005,472.13 
				103.626,473.332 103.626,473.332 			"/>
		</defs>
		<clipPath id="SVGID_2_">
			<use xlink:href="#SVGID_1_"  overflow="visible"/>
		</clipPath>
		<g id="g4734" transform="matrix(3.6410118,0,0,3.6410104,-2.3099863,-1.3610219)" clip-path="url(#SVGID_2_)">
		</g>
	</g>
	<g>
		<defs>
			<polygon id="SVGID_3_" points="116.359,522.245 92.411,545.399 125.129,555.925 126.133,556.994 91.134,545.689 116.733,520.972 
				116.359,522.245 116.359,522.245 			"/>
		</defs>
		<clipPath id="SVGID_4_">
			<use xlink:href="#SVGID_3_"  overflow="visible"/>
		</clipPath>
		<g id="g4742" transform="matrix(3.6410118,0,0,3.6410104,-2.3099863,-1.3610219)" clip-path="url(#SVGID_4_)">
		</g>
	</g>
	<g>
		<defs>
			<polygon id="SVGID_5_" points="129.606,572.657 111.078,598.569 136.944,600.681 137.829,601.413 109.848,599.149 
				129.903,571.104 129.606,572.657 129.606,572.657 			"/>
		</defs>
		<clipPath id="SVGID_6_">
			<use xlink:href="#SVGID_5_"  overflow="visible"/>
		</clipPath>
		<g id="g4750" transform="matrix(3.6410118,0,0,3.6410104,-2.3099863,-1.3610219)" clip-path="url(#SVGID_6_)">
		</g>
	</g>
	<path fill="#FF1E32" d="M142.838,955.324l16.08,4.062c-3.371,13.207-9.437,23.278-18.194,30.213S121.259,1000,108.606,1000
		c-13.097,0-23.747-2.666-31.953-7.999c-8.206-5.331-14.45-13.054-18.732-23.166s-6.424-20.971-6.424-32.574
		c0-12.654,2.417-23.692,7.253-33.114c4.834-9.421,11.715-16.578,20.639-21.467c8.924-4.892,18.746-7.336,29.467-7.336
		c12.156,0,22.379,3.095,30.668,9.283s14.063,14.894,17.323,26.109l-15.831,3.73c-2.818-8.841-6.908-15.278-12.268-19.313
		c-5.36-4.034-12.102-6.051-20.225-6.051c-9.339,0-17.145,2.237-23.416,6.713c-6.271,4.477-10.679,10.484-13.221,18.029
		c-2.541,7.541-3.813,15.32-3.813,23.332c0,10.332,1.506,19.354,4.518,27.063c3.012,7.706,7.694,13.468,14.049,17.281
		c6.355,3.813,13.234,5.719,20.64,5.719c9.007,0,16.632-2.598,22.876-7.791C136.399,973.256,140.627,965.548,142.838,955.324z"/>
	<path fill="#FF1E32" d="M172.696,997.929V876.416h53.876c10.83,0,19.063,1.092,24.7,3.274c5.637,2.184,10.14,6.037,13.511,11.563
		c3.37,5.525,5.056,11.632,5.056,18.317c0,8.621-2.791,15.887-8.371,21.8c-5.582,5.913-14.202,9.67-25.861,11.272
		c4.255,2.044,7.488,4.062,9.698,6.051c4.696,4.311,9.146,9.698,13.345,16.163l21.137,33.072h-20.225l-16.08-25.281
		c-4.697-7.294-8.566-12.875-11.604-16.743c-3.04-3.867-5.761-6.576-8.164-8.123c-2.403-1.546-4.849-2.624-7.336-3.232
		c-1.823-0.386-4.808-0.58-8.952-0.58h-18.648v53.96H172.696z M188.776,930.044h34.563c7.349,0,13.096-0.759,17.24-2.278
		c4.145-1.521,7.294-3.951,9.449-7.295c2.155-3.343,3.232-6.977,3.232-10.9c0-5.745-2.086-10.472-6.258-14.173
		c-4.173-3.702-10.763-5.554-19.769-5.554h-38.459V930.044z"/>
	<path fill="#FF1E32" d="M286.624,997.929V876.416h87.861v14.34h-71.781v37.216h67.222v14.257h-67.222v41.36h74.599v14.34H286.624z"
		/>
	<path fill="#FF1E32" d="M377.767,997.929l46.666-121.513h17.322l49.73,121.513h-18.316l-14.173-36.802h-50.81l-13.346,36.802
		H377.767z M412.828,948.03h41.194l-12.682-33.652c-3.868-10.222-6.742-18.621-8.62-25.197c-1.548,7.791-3.729,15.528-6.548,23.208
		L412.828,948.03z"/>
	<path fill="#FF1E32" d="M512.237,997.929V890.756h-40.039v-14.34h96.32v14.34h-40.201v107.173H512.237z"/>
	<path fill="#FF1E32" d="M576.939,997.929V876.416h16.08v121.513H576.939z"/>
	<path fill="#FF1E32" d="M609.249,938.747c0-20.168,5.414-35.959,16.246-47.371c10.83-11.41,24.81-17.115,41.94-17.115
		c11.216,0,21.328,2.681,30.337,8.04c9.006,5.359,15.873,12.835,20.597,22.422c4.726,9.587,7.087,20.459,7.087,32.615
		c0,12.322-2.486,23.348-7.459,33.072c-4.974,9.726-12.02,17.089-21.137,22.088c-9.117,5.002-18.953,7.502-29.508,7.502
		c-11.438,0-21.662-2.763-30.668-8.288c-9.007-5.525-15.832-13.068-20.473-22.628C611.569,959.525,609.249,949.413,609.249,938.747z
		 M625.826,938.996c0,14.643,3.938,26.178,11.811,34.604c7.876,8.428,17.752,12.641,29.633,12.641
		c12.102,0,22.061-4.255,29.88-12.765c7.82-8.509,11.729-20.582,11.729-36.222c0-9.89-1.672-18.526-5.014-25.901
		c-3.344-7.379-8.235-13.096-14.673-17.159c-6.437-4.06-13.662-6.091-21.674-6.091c-11.384,0-21.177,3.909-29.385,11.728
		C629.93,907.65,625.826,920.706,625.826,938.996z"/>
	<path fill="#FF1E32" d="M737.979,997.929V876.416h16.495l63.822,95.402v-95.402h15.417v121.513h-16.494l-63.823-95.486v95.486
		H737.979z"/>
	<path fill="#FF1E32" d="M847.323,958.889l15.169-1.326c0.718,6.079,2.39,11.064,5.014,14.962c2.624,3.894,6.7,7.044,12.227,9.449
		c5.525,2.401,11.742,3.604,18.649,3.604c6.134,0,11.55-0.912,16.246-2.735s8.191-4.322,10.486-7.5
		c2.292-3.179,3.438-6.646,3.438-10.403c0-3.813-1.105-7.141-3.315-9.987s-5.856-5.236-10.941-7.171
		c-3.26-1.271-10.472-3.244-21.633-5.925c-11.163-2.681-18.981-5.208-23.457-7.585c-5.803-3.039-10.127-6.81-12.973-11.313
		c-2.847-4.504-4.268-9.546-4.268-15.128c0-6.134,1.74-11.865,5.222-17.198s8.563-9.38,15.251-12.144
		c6.686-2.764,14.119-4.145,22.297-4.145c9.006,0,16.951,1.45,23.829,4.353c6.881,2.899,12.17,7.169,15.873,12.806
		c3.702,5.636,5.691,12.018,5.968,19.146l-15.416,1.16c-0.829-7.68-3.635-13.482-8.414-17.406s-11.839-5.885-21.177-5.885
		c-9.727,0-16.813,1.783-21.262,5.346c-4.447,3.565-6.672,7.861-6.672,12.89c0,4.366,1.575,7.957,4.725,10.775
		c3.096,2.817,11.176,5.705,24.245,8.66c13.068,2.958,22.033,5.541,26.896,7.751c7.072,3.261,12.295,7.391,15.666,12.393
		c3.37,5.001,5.056,10.761,5.056,17.281c0,6.465-1.852,12.558-5.554,18.275c-3.701,5.721-9.021,10.169-15.956,13.347
		c-6.935,3.176-14.74,4.765-23.415,4.765c-10.997,0-20.212-1.603-27.644-4.807c-7.432-3.205-13.262-8.026-17.487-14.465
		C849.769,974.291,847.544,967.012,847.323,958.889z"/>
</g>
</svg>
